<?xml version="1.0" encoding="UTF-8" standalone="no"?>
<!DOCTYPE svg PUBLIC "-//W3C//DTD SVG 1.1//EN"
 "http://www.w3.org/Graphics/SVG/1.1/DTD/svg11.dtd">
<!-- Generated by graphviz version 9.0.0 (20230911.1827)
 -->
<!-- Title: Tree Pages: 1 -->
<svg width="322pt" height="195pt"
 viewBox="0.00 0.00 322.25 195.00" xmlns="http://www.w3.org/2000/svg" xmlns:xlink="http://www.w3.org/1999/xlink">
<g id="graph0" class="graph" transform="scale(1 1) rotate(0) translate(4 191)">
<title>Tree</title>
<polygon fill="white" stroke="none" points="-4,4 -4,-191 318.25,-191 318.25,4 -4,4"/>
<!-- 0 -->
<g id="node1" class="node">
<title>0</title>
<polygon fill="#fdf5f0" stroke="black" points="242.5,-187 0,-187 0,-104 242.5,-104 242.5,-187"/>
<text text-anchor="start" x="8" y="-169.7" font-family="Helvetica,sans-Serif" font-size="14.00">DEIKKASDEVFFALGDNNAS ≤ 0.002</text>
<text text-anchor="start" x="86" y="-154.7" font-family="Helvetica,sans-Serif" font-size="14.00">gini = 0.499</text>
<text text-anchor="start" x="76.62" y="-139.7" font-family="Helvetica,sans-Serif" font-size="14.00">samples = 100</text>
<text text-anchor="start" x="74.75" y="-124.7" font-family="Helvetica,sans-Serif" font-size="14.00">value = [52, 48]</text>
<text text-anchor="start" x="87.88" y="-109.7" font-family="Helvetica,sans-Serif" font-size="14.00">class = coli</text>
</g>
<!-- 1 -->
<g id="node2" class="node">
<title>1</title>
<polygon fill="#e58139" stroke="black" points="112,-68 10.5,-68 10.5,0 112,0 112,-68"/>
<text text-anchor="start" x="33.5" y="-50.7" font-family="Helvetica,sans-Serif" font-size="14.00">gini = 0.0</text>
<text text-anchor="start" x="20.38" y="-35.7" font-family="Helvetica,sans-Serif" font-size="14.00">samples = 52</text>
<text text-anchor="start" x="18.5" y="-20.7" font-family="Helvetica,sans-Serif" font-size="14.00">value = [52, 0]</text>
<text text-anchor="start" x="27.88" y="-5.7" font-family="Helvetica,sans-Serif" font-size="14.00">class = coli</text>
</g>
<!-- 0&#45;&gt;1 -->
<g id="edge1" class="edge">
<title>0&#45;&gt;1</title>
<path fill="none" stroke="black" d="M98.91,-103.73C94.36,-95.43 89.56,-86.67 84.97,-78.28"/>
<polygon fill="black" stroke="black" points="88.1,-76.71 80.22,-69.63 81.96,-80.08 88.1,-76.71"/>
<text text-anchor="middle" x="72.49" y="-86.5" font-family="Helvetica,sans-Serif" font-size="14.00">True</text>
</g>
<!-- 2 -->
<g id="node3" class="node">
<title>2</title>
<polygon fill="#399de5" stroke="black" points="232,-68 130.5,-68 130.5,0 232,0 232,-68"/>
<text text-anchor="start" x="153.5" y="-50.7" font-family="Helvetica,sans-Serif" font-size="14.00">gini = 0.0</text>
<text text-anchor="start" x="140.38" y="-35.7" font-family="Helvetica,sans-Serif" font-size="14.00">samples = 48</text>
<text text-anchor="start" x="138.5" y="-20.7" font-family="Helvetica,sans-Serif" font-size="14.00">value = [0, 48]</text>
<text text-anchor="start" x="142.25" y="-5.7" font-family="Helvetica,sans-Serif" font-size="14.00">class = jejuni</text>
</g>
<!-- 0&#45;&gt;2 -->
<g id="edge2" class="edge">
<title>0&#45;&gt;2</title>
<path fill="none" stroke="black" d="M143.59,-103.73C148.14,-95.43 152.94,-86.67 157.53,-78.28"/>
<polygon fill="black" stroke="black" points="160.54,-80.08 162.28,-69.63 154.4,-76.71 160.54,-80.08"/>
<text text-anchor="middle" x="170.01" y="-86.5" font-family="Helvetica,sans-Serif" font-size="14.00">False</text>
</g>
<!-- \n -->
<g id="node4" class="node">
<title>\n</title>
<polygon fill="black" stroke="black" points="314.25,-163.5 260.25,-163.5 260.25,-127.5 314.25,-127.5 314.25,-163.5"/>
</g>
</g>
</svg>
