<?xml version="1.0" encoding="UTF-8" standalone="no"?>
<!DOCTYPE svg PUBLIC "-//W3C//DTD SVG 1.1//EN"
 "http://www.w3.org/Graphics/SVG/1.1/DTD/svg11.dtd">
<!-- Generated by graphviz version 9.0.0 (20230911.1827)
 -->
<!-- Title: Tree Pages: 1 -->
<svg width="328pt" height="195pt"
 viewBox="0.00 0.00 327.50 195.00" xmlns="http://www.w3.org/2000/svg" xmlns:xlink="http://www.w3.org/1999/xlink">
<g id="graph0" class="graph" transform="scale(1 1) rotate(0) translate(4 191)">
<title>Tree</title>
<polygon fill="white" stroke="none" points="-4,4 -4,-191 323.5,-191 323.5,4 -4,4"/>
<!-- 0 -->
<g id="node1" class="node">
<title>0</title>
<polygon fill="#fdf5f0" stroke="black" points="247,-187 0,-187 0,-104 247,-104 247,-187"/>
<text text-anchor="start" x="8" y="-169.7" font-family="Helvetica,sans-Serif" font-size="14.00">QDNCVRCHADFAQTAINATT ≤ 0.002</text>
<text text-anchor="start" x="88.25" y="-154.7" font-family="Helvetica,sans-Serif" font-size="14.00">gini = 0.499</text>
<text text-anchor="start" x="78.88" y="-139.7" font-family="Helvetica,sans-Serif" font-size="14.00">samples = 100</text>
<text text-anchor="start" x="77" y="-124.7" font-family="Helvetica,sans-Serif" font-size="14.00">value = [52, 48]</text>
<text text-anchor="start" x="90.12" y="-109.7" font-family="Helvetica,sans-Serif" font-size="14.00">class = coli</text>
</g>
<!-- 1 -->
<g id="node2" class="node">
<title>1</title>
<polygon fill="#399de5" stroke="black" points="114.25,-68 12.75,-68 12.75,0 114.25,0 114.25,-68"/>
<text text-anchor="start" x="35.75" y="-50.7" font-family="Helvetica,sans-Serif" font-size="14.00">gini = 0.0</text>
<text text-anchor="start" x="22.62" y="-35.7" font-family="Helvetica,sans-Serif" font-size="14.00">samples = 48</text>
<text text-anchor="start" x="20.75" y="-20.7" font-family="Helvetica,sans-Serif" font-size="14.00">value = [0, 48]</text>
<text text-anchor="start" x="24.5" y="-5.7" font-family="Helvetica,sans-Serif" font-size="14.00">class = jejuni</text>
</g>
<!-- 0&#45;&gt;1 -->
<g id="edge1" class="edge">
<title>0&#45;&gt;1</title>
<path fill="none" stroke="black" d="M101.16,-103.73C96.61,-95.43 91.81,-86.67 87.22,-78.28"/>
<polygon fill="black" stroke="black" points="90.35,-76.71 82.47,-69.63 84.21,-80.08 90.35,-76.71"/>
<text text-anchor="middle" x="74.74" y="-86.5" font-family="Helvetica,sans-Serif" font-size="14.00">True</text>
</g>
<!-- 2 -->
<g id="node3" class="node">
<title>2</title>
<polygon fill="#e58139" stroke="black" points="234.25,-68 132.75,-68 132.75,0 234.25,0 234.25,-68"/>
<text text-anchor="start" x="155.75" y="-50.7" font-family="Helvetica,sans-Serif" font-size="14.00">gini = 0.0</text>
<text text-anchor="start" x="142.62" y="-35.7" font-family="Helvetica,sans-Serif" font-size="14.00">samples = 52</text>
<text text-anchor="start" x="140.75" y="-20.7" font-family="Helvetica,sans-Serif" font-size="14.00">value = [52, 0]</text>
<text text-anchor="start" x="150.12" y="-5.7" font-family="Helvetica,sans-Serif" font-size="14.00">class = coli</text>
</g>
<!-- 0&#45;&gt;2 -->
<g id="edge2" class="edge">
<title>0&#45;&gt;2</title>
<path fill="none" stroke="black" d="M145.84,-103.73C150.39,-95.43 155.19,-86.67 159.78,-78.28"/>
<polygon fill="black" stroke="black" points="162.79,-80.08 164.53,-69.63 156.65,-76.71 162.79,-80.08"/>
<text text-anchor="middle" x="172.26" y="-86.5" font-family="Helvetica,sans-Serif" font-size="14.00">False</text>
</g>
<!-- \n -->
<g id="node4" class="node">
<title>\n</title>
<polygon fill="black" stroke="black" points="319.5,-163.5 265.5,-163.5 265.5,-127.5 319.5,-127.5 319.5,-163.5"/>
</g>
</g>
</svg>
