<?xml version="1.0" encoding="UTF-8" standalone="no"?>
<!DOCTYPE svg PUBLIC "-//W3C//DTD SVG 1.1//EN"
 "http://www.w3.org/Graphics/SVG/1.1/DTD/svg11.dtd">
<!-- Generated by graphviz version 9.0.0 (20230911.1827)
 -->
<!-- Title: Tree Pages: 1 -->
<svg width="326pt" height="195pt"
 viewBox="0.00 0.00 326.12 195.00" xmlns="http://www.w3.org/2000/svg" xmlns:xlink="http://www.w3.org/1999/xlink">
<g id="graph0" class="graph" transform="scale(1 1) rotate(0) translate(4 191)">
<title>Tree</title>
<polygon fill="white" stroke="none" points="-4,4 -4,-191 322.12,-191 322.12,4 -4,4"/>
<!-- 0 -->
<g id="node1" class="node">
<title>0</title>
<polygon fill="#fdf5f0" stroke="black" points="246.25,-187 0,-187 0,-104 246.25,-104 246.25,-187"/>
<text text-anchor="start" x="8" y="-169.7" font-family="Helvetica,sans-Serif" font-size="14.00">EKAGAKELHLVDLTGAKDPS ≤ 0.002</text>
<text text-anchor="start" x="87.88" y="-154.7" font-family="Helvetica,sans-Serif" font-size="14.00">gini = 0.499</text>
<text text-anchor="start" x="78.5" y="-139.7" font-family="Helvetica,sans-Serif" font-size="14.00">samples = 100</text>
<text text-anchor="start" x="76.62" y="-124.7" font-family="Helvetica,sans-Serif" font-size="14.00">value = [52, 48]</text>
<text text-anchor="start" x="89.75" y="-109.7" font-family="Helvetica,sans-Serif" font-size="14.00">class = coli</text>
</g>
<!-- 1 -->
<g id="node2" class="node">
<title>1</title>
<polygon fill="#e58139" stroke="black" points="113.88,-68 12.38,-68 12.38,0 113.88,0 113.88,-68"/>
<text text-anchor="start" x="35.38" y="-50.7" font-family="Helvetica,sans-Serif" font-size="14.00">gini = 0.0</text>
<text text-anchor="start" x="22.25" y="-35.7" font-family="Helvetica,sans-Serif" font-size="14.00">samples = 52</text>
<text text-anchor="start" x="20.38" y="-20.7" font-family="Helvetica,sans-Serif" font-size="14.00">value = [52, 0]</text>
<text text-anchor="start" x="29.75" y="-5.7" font-family="Helvetica,sans-Serif" font-size="14.00">class = coli</text>
</g>
<!-- 0&#45;&gt;1 -->
<g id="edge1" class="edge">
<title>0&#45;&gt;1</title>
<path fill="none" stroke="black" d="M100.78,-103.73C96.24,-95.43 91.44,-86.67 86.84,-78.28"/>
<polygon fill="black" stroke="black" points="89.97,-76.71 82.1,-69.63 83.83,-80.08 89.97,-76.71"/>
<text text-anchor="middle" x="74.36" y="-86.5" font-family="Helvetica,sans-Serif" font-size="14.00">True</text>
</g>
<!-- 2 -->
<g id="node3" class="node">
<title>2</title>
<polygon fill="#399de5" stroke="black" points="233.88,-68 132.38,-68 132.38,0 233.88,0 233.88,-68"/>
<text text-anchor="start" x="155.38" y="-50.7" font-family="Helvetica,sans-Serif" font-size="14.00">gini = 0.0</text>
<text text-anchor="start" x="142.25" y="-35.7" font-family="Helvetica,sans-Serif" font-size="14.00">samples = 48</text>
<text text-anchor="start" x="140.38" y="-20.7" font-family="Helvetica,sans-Serif" font-size="14.00">value = [0, 48]</text>
<text text-anchor="start" x="144.12" y="-5.7" font-family="Helvetica,sans-Serif" font-size="14.00">class = jejuni</text>
</g>
<!-- 0&#45;&gt;2 -->
<g id="edge2" class="edge">
<title>0&#45;&gt;2</title>
<path fill="none" stroke="black" d="M145.47,-103.73C150.01,-95.43 154.81,-86.67 159.41,-78.28"/>
<polygon fill="black" stroke="black" points="162.42,-80.08 164.15,-69.63 156.28,-76.71 162.42,-80.08"/>
<text text-anchor="middle" x="171.89" y="-86.5" font-family="Helvetica,sans-Serif" font-size="14.00">False</text>
</g>
<!-- \n -->
<g id="node4" class="node">
<title>\n</title>
<polygon fill="black" stroke="black" points="318.12,-163.5 264.12,-163.5 264.12,-127.5 318.12,-127.5 318.12,-163.5"/>
</g>
</g>
</svg>
