<?xml version="1.0" encoding="UTF-8" standalone="no"?>
<!DOCTYPE svg PUBLIC "-//W3C//DTD SVG 1.1//EN"
 "http://www.w3.org/Graphics/SVG/1.1/DTD/svg11.dtd">
<!-- Generated by graphviz version 9.0.0 (20230911.1827)
 -->
<!-- Title: Tree Pages: 1 -->
<svg width="336pt" height="195pt"
 viewBox="0.00 0.00 336.00 195.00" xmlns="http://www.w3.org/2000/svg" xmlns:xlink="http://www.w3.org/1999/xlink">
<g id="graph0" class="graph" transform="scale(1 1) rotate(0) translate(4 191)">
<title>Tree</title>
<polygon fill="white" stroke="none" points="-4,4 -4,-191 332,-191 332,4 -4,4"/>
<!-- 0 -->
<g id="node1" class="node">
<title>0</title>
<polygon fill="#fdf5f0" stroke="black" points="256,-187 0,-187 0,-104 256,-104 256,-187"/>
<text text-anchor="start" x="8" y="-169.7" font-family="Helvetica,sans-Serif" font-size="14.00">IVSRGGSVLYAWMMMKDAEN ≤ 0.002</text>
<text text-anchor="start" x="92.75" y="-154.7" font-family="Helvetica,sans-Serif" font-size="14.00">gini = 0.499</text>
<text text-anchor="start" x="83.38" y="-139.7" font-family="Helvetica,sans-Serif" font-size="14.00">samples = 100</text>
<text text-anchor="start" x="81.5" y="-124.7" font-family="Helvetica,sans-Serif" font-size="14.00">value = [52, 48]</text>
<text text-anchor="start" x="94.62" y="-109.7" font-family="Helvetica,sans-Serif" font-size="14.00">class = coli</text>
</g>
<!-- 1 -->
<g id="node2" class="node">
<title>1</title>
<polygon fill="#e58139" stroke="black" points="118.75,-68 17.25,-68 17.25,0 118.75,0 118.75,-68"/>
<text text-anchor="start" x="40.25" y="-50.7" font-family="Helvetica,sans-Serif" font-size="14.00">gini = 0.0</text>
<text text-anchor="start" x="27.12" y="-35.7" font-family="Helvetica,sans-Serif" font-size="14.00">samples = 52</text>
<text text-anchor="start" x="25.25" y="-20.7" font-family="Helvetica,sans-Serif" font-size="14.00">value = [52, 0]</text>
<text text-anchor="start" x="34.62" y="-5.7" font-family="Helvetica,sans-Serif" font-size="14.00">class = coli</text>
</g>
<!-- 0&#45;&gt;1 -->
<g id="edge1" class="edge">
<title>0&#45;&gt;1</title>
<path fill="none" stroke="black" d="M105.66,-103.73C101.11,-95.43 96.31,-86.67 91.72,-78.28"/>
<polygon fill="black" stroke="black" points="94.85,-76.71 86.97,-69.63 88.71,-80.08 94.85,-76.71"/>
<text text-anchor="middle" x="79.24" y="-86.5" font-family="Helvetica,sans-Serif" font-size="14.00">True</text>
</g>
<!-- 2 -->
<g id="node3" class="node">
<title>2</title>
<polygon fill="#399de5" stroke="black" points="238.75,-68 137.25,-68 137.25,0 238.75,0 238.75,-68"/>
<text text-anchor="start" x="160.25" y="-50.7" font-family="Helvetica,sans-Serif" font-size="14.00">gini = 0.0</text>
<text text-anchor="start" x="147.12" y="-35.7" font-family="Helvetica,sans-Serif" font-size="14.00">samples = 48</text>
<text text-anchor="start" x="145.25" y="-20.7" font-family="Helvetica,sans-Serif" font-size="14.00">value = [0, 48]</text>
<text text-anchor="start" x="149" y="-5.7" font-family="Helvetica,sans-Serif" font-size="14.00">class = jejuni</text>
</g>
<!-- 0&#45;&gt;2 -->
<g id="edge2" class="edge">
<title>0&#45;&gt;2</title>
<path fill="none" stroke="black" d="M150.34,-103.73C154.89,-95.43 159.69,-86.67 164.28,-78.28"/>
<polygon fill="black" stroke="black" points="167.29,-80.08 169.03,-69.63 161.15,-76.71 167.29,-80.08"/>
<text text-anchor="middle" x="176.76" y="-86.5" font-family="Helvetica,sans-Serif" font-size="14.00">False</text>
</g>
<!-- \n -->
<g id="node4" class="node">
<title>\n</title>
<polygon fill="black" stroke="black" points="328,-163.5 274,-163.5 274,-127.5 328,-127.5 328,-163.5"/>
</g>
</g>
</svg>
