<?xml version="1.0" encoding="UTF-8" standalone="no"?>
<!DOCTYPE svg PUBLIC "-//W3C//DTD SVG 1.1//EN"
 "http://www.w3.org/Graphics/SVG/1.1/DTD/svg11.dtd">
<!-- Generated by graphviz version 9.0.0 (20230911.1827)
 -->
<!-- Title: Tree Pages: 1 -->
<svg width="316pt" height="195pt"
 viewBox="0.00 0.00 315.88 195.00" xmlns="http://www.w3.org/2000/svg" xmlns:xlink="http://www.w3.org/1999/xlink">
<g id="graph0" class="graph" transform="scale(1 1) rotate(0) translate(4 191)">
<title>Tree</title>
<polygon fill="white" stroke="none" points="-4,4 -4,-191 311.88,-191 311.88,4 -4,4"/>
<!-- 0 -->
<g id="node1" class="node">
<title>0</title>
<polygon fill="#fdf5f0" stroke="black" points="235.75,-187 0,-187 0,-104 235.75,-104 235.75,-187"/>
<text text-anchor="start" x="8" y="-169.7" font-family="Helvetica,sans-Serif" font-size="14.00">MTSALCTAKNLKAIDKEIYN ≤ 0.002</text>
<text text-anchor="start" x="82.62" y="-154.7" font-family="Helvetica,sans-Serif" font-size="14.00">gini = 0.499</text>
<text text-anchor="start" x="73.25" y="-139.7" font-family="Helvetica,sans-Serif" font-size="14.00">samples = 100</text>
<text text-anchor="start" x="71.38" y="-124.7" font-family="Helvetica,sans-Serif" font-size="14.00">value = [52, 48]</text>
<text text-anchor="start" x="84.5" y="-109.7" font-family="Helvetica,sans-Serif" font-size="14.00">class = coli</text>
</g>
<!-- 1 -->
<g id="node2" class="node">
<title>1</title>
<polygon fill="#399de5" stroke="black" points="108.62,-68 7.12,-68 7.12,0 108.62,0 108.62,-68"/>
<text text-anchor="start" x="30.12" y="-50.7" font-family="Helvetica,sans-Serif" font-size="14.00">gini = 0.0</text>
<text text-anchor="start" x="17" y="-35.7" font-family="Helvetica,sans-Serif" font-size="14.00">samples = 48</text>
<text text-anchor="start" x="15.12" y="-20.7" font-family="Helvetica,sans-Serif" font-size="14.00">value = [0, 48]</text>
<text text-anchor="start" x="18.88" y="-5.7" font-family="Helvetica,sans-Serif" font-size="14.00">class = jejuni</text>
</g>
<!-- 0&#45;&gt;1 -->
<g id="edge1" class="edge">
<title>0&#45;&gt;1</title>
<path fill="none" stroke="black" d="M95.53,-103.73C90.99,-95.43 86.19,-86.67 81.59,-78.28"/>
<polygon fill="black" stroke="black" points="84.72,-76.71 76.85,-69.63 78.58,-80.08 84.72,-76.71"/>
<text text-anchor="middle" x="69.11" y="-86.5" font-family="Helvetica,sans-Serif" font-size="14.00">True</text>
</g>
<!-- 2 -->
<g id="node3" class="node">
<title>2</title>
<polygon fill="#e58139" stroke="black" points="228.62,-68 127.12,-68 127.12,0 228.62,0 228.62,-68"/>
<text text-anchor="start" x="150.12" y="-50.7" font-family="Helvetica,sans-Serif" font-size="14.00">gini = 0.0</text>
<text text-anchor="start" x="137" y="-35.7" font-family="Helvetica,sans-Serif" font-size="14.00">samples = 52</text>
<text text-anchor="start" x="135.12" y="-20.7" font-family="Helvetica,sans-Serif" font-size="14.00">value = [52, 0]</text>
<text text-anchor="start" x="144.5" y="-5.7" font-family="Helvetica,sans-Serif" font-size="14.00">class = coli</text>
</g>
<!-- 0&#45;&gt;2 -->
<g id="edge2" class="edge">
<title>0&#45;&gt;2</title>
<path fill="none" stroke="black" d="M140.22,-103.73C144.76,-95.43 149.56,-86.67 154.16,-78.28"/>
<polygon fill="black" stroke="black" points="157.17,-80.08 158.9,-69.63 151.03,-76.71 157.17,-80.08"/>
<text text-anchor="middle" x="166.64" y="-86.5" font-family="Helvetica,sans-Serif" font-size="14.00">False</text>
</g>
<!-- \n -->
<g id="node4" class="node">
<title>\n</title>
<polygon fill="black" stroke="black" points="307.88,-163.5 253.88,-163.5 253.88,-127.5 307.88,-127.5 307.88,-163.5"/>
</g>
</g>
</svg>
