<?xml version="1.0" encoding="UTF-8" standalone="no"?>
<!DOCTYPE svg PUBLIC "-//W3C//DTD SVG 1.1//EN"
 "http://www.w3.org/Graphics/SVG/1.1/DTD/svg11.dtd">
<!-- Generated by graphviz version 9.0.0 (20230911.1827)
 -->
<!-- Title: Tree Pages: 1 -->
<svg width="441pt" height="314pt"
 viewBox="0.00 0.00 440.88 314.00" xmlns="http://www.w3.org/2000/svg" xmlns:xlink="http://www.w3.org/1999/xlink">
<g id="graph0" class="graph" transform="scale(1 1) rotate(0) translate(4 310)">
<title>Tree</title>
<polygon fill="white" stroke="none" points="-4,4 -4,-310 436.88,-310 436.88,4 -4,4"/>
<!-- 0 -->
<g id="node1" class="node">
<title>0</title>
<polygon fill="none" stroke="black" points="361.12,-306 100.62,-306 100.62,-223 361.12,-223 361.12,-306"/>
<text text-anchor="middle" x="230.88" y="-288.7" font-family="Helvetica,sans-Serif" font-size="14.00">REFWLKDGNTMTLIWKYGEL &lt;= 0.005</text>
<text text-anchor="middle" x="230.88" y="-273.7" font-family="Helvetica,sans-Serif" font-size="14.00">gini = 0.604</text>
<text text-anchor="middle" x="230.88" y="-258.7" font-family="Helvetica,sans-Serif" font-size="14.00">samples = 13</text>
<text text-anchor="middle" x="230.88" y="-243.7" font-family="Helvetica,sans-Serif" font-size="14.00">value = [7, 3, 3]</text>
<text text-anchor="middle" x="230.88" y="-228.7" font-family="Helvetica,sans-Serif" font-size="14.00">class = 1</text>
</g>
<!-- 1 -->
<g id="node2" class="node">
<title>1</title>
<polygon fill="none" stroke="black" points="259.75,-187 0,-187 0,-104 259.75,-104 259.75,-187"/>
<text text-anchor="middle" x="129.88" y="-169.7" font-family="Helvetica,sans-Serif" font-size="14.00">DMTNLKELEKWETYFKDEGF &lt;= 0.004</text>
<text text-anchor="middle" x="129.88" y="-154.7" font-family="Helvetica,sans-Serif" font-size="14.00">gini = 0.42</text>
<text text-anchor="middle" x="129.88" y="-139.7" font-family="Helvetica,sans-Serif" font-size="14.00">samples = 10</text>
<text text-anchor="middle" x="129.88" y="-124.7" font-family="Helvetica,sans-Serif" font-size="14.00">value = [7, 3, 0]</text>
<text text-anchor="middle" x="129.88" y="-109.7" font-family="Helvetica,sans-Serif" font-size="14.00">class = 1</text>
</g>
<!-- 0&#45;&gt;1 -->
<g id="edge1" class="edge">
<title>0&#45;&gt;1</title>
<path fill="none" stroke="black" d="M195.55,-222.58C188.05,-213.89 180.06,-204.63 172.32,-195.67"/>
<polygon fill="black" stroke="black" points="175.18,-193.63 166,-188.35 169.88,-198.2 175.18,-193.63"/>
<text text-anchor="middle" x="163.18" y="-206.33" font-family="Helvetica,sans-Serif" font-size="14.00">True</text>
</g>
<!-- 4 -->
<g id="node5" class="node">
<title>4</title>
<polygon fill="none" stroke="black" points="386.38,-179.5 277.38,-179.5 277.38,-111.5 386.38,-111.5 386.38,-179.5"/>
<text text-anchor="middle" x="331.88" y="-162.2" font-family="Helvetica,sans-Serif" font-size="14.00">gini = 0.0</text>
<text text-anchor="middle" x="331.88" y="-147.2" font-family="Helvetica,sans-Serif" font-size="14.00">samples = 3</text>
<text text-anchor="middle" x="331.88" y="-132.2" font-family="Helvetica,sans-Serif" font-size="14.00">value = [0, 0, 3]</text>
<text text-anchor="middle" x="331.88" y="-117.2" font-family="Helvetica,sans-Serif" font-size="14.00">class = 3</text>
</g>
<!-- 0&#45;&gt;4 -->
<g id="edge4" class="edge">
<title>0&#45;&gt;4</title>
<path fill="none" stroke="black" d="M266.2,-222.58C275.72,-211.56 286.02,-199.61 295.59,-188.53"/>
<polygon fill="black" stroke="black" points="298.2,-190.86 302.09,-181.01 292.9,-186.29 298.2,-190.86"/>
<text text-anchor="middle" x="304.91" y="-198.99" font-family="Helvetica,sans-Serif" font-size="14.00">False</text>
</g>
<!-- 2 -->
<g id="node3" class="node">
<title>2</title>
<polygon fill="none" stroke="black" points="121.38,-68 12.38,-68 12.38,0 121.38,0 121.38,-68"/>
<text text-anchor="middle" x="66.88" y="-50.7" font-family="Helvetica,sans-Serif" font-size="14.00">gini = 0.0</text>
<text text-anchor="middle" x="66.88" y="-35.7" font-family="Helvetica,sans-Serif" font-size="14.00">samples = 7</text>
<text text-anchor="middle" x="66.88" y="-20.7" font-family="Helvetica,sans-Serif" font-size="14.00">value = [7, 0, 0]</text>
<text text-anchor="middle" x="66.88" y="-5.7" font-family="Helvetica,sans-Serif" font-size="14.00">class = 1</text>
</g>
<!-- 1&#45;&gt;2 -->
<g id="edge2" class="edge">
<title>1&#45;&gt;2</title>
<path fill="none" stroke="black" d="M106.42,-103.73C101.59,-95.34 96.49,-86.47 91.62,-78.01"/>
<polygon fill="black" stroke="black" points="94.81,-76.53 86.79,-69.61 88.74,-80.02 94.81,-76.53"/>
</g>
<!-- 3 -->
<g id="node4" class="node">
<title>3</title>
<polygon fill="none" stroke="black" points="248.38,-68 139.38,-68 139.38,0 248.38,0 248.38,-68"/>
<text text-anchor="middle" x="193.88" y="-50.7" font-family="Helvetica,sans-Serif" font-size="14.00">gini = 0.0</text>
<text text-anchor="middle" x="193.88" y="-35.7" font-family="Helvetica,sans-Serif" font-size="14.00">samples = 3</text>
<text text-anchor="middle" x="193.88" y="-20.7" font-family="Helvetica,sans-Serif" font-size="14.00">value = [0, 3, 0]</text>
<text text-anchor="middle" x="193.88" y="-5.7" font-family="Helvetica,sans-Serif" font-size="14.00">class = 2</text>
</g>
<!-- 1&#45;&gt;3 -->
<g id="edge3" class="edge">
<title>1&#45;&gt;3</title>
<path fill="none" stroke="black" d="M153.71,-103.73C158.61,-95.34 163.79,-86.47 168.74,-78.01"/>
<polygon fill="black" stroke="black" points="171.62,-80.01 173.65,-69.61 165.58,-76.47 171.62,-80.01"/>
</g>
<!-- \n -->
<g id="node6" class="node">
<title>\n</title>
<polygon fill="none" stroke="black" points="432.88,-282.5 378.88,-282.5 378.88,-246.5 432.88,-246.5 432.88,-282.5"/>
</g>
</g>
</svg>
